<svg width="48" height="49" viewBox="0 0 48 49" fill="none" xmlns="http://www.w3.org/2000/svg">
<g clip-path="url(#clip0_1_23)">
<path d="M24 48.046C37.2548 48.046 48 37.2905 48 24.023C48 10.7555 37.2548 0 24 0C10.7452 0 0 10.7555 0 24.023C0 37.2905 10.7452 48.046 24 48.046Z" fill="#4D76A1"/>
<path fill-rule="evenodd" clip-rule="evenodd" d="M23.0934 34.5592H24.9771C24.9771 34.5592 25.5461 34.4967 25.8366 34.1832C26.104 33.8955 26.0955 33.355 26.0955 33.355C26.0955 33.355 26.0587 30.825 27.2318 30.4525C28.3882 30.0855 29.8731 32.8977 31.4471 33.979C32.6373 34.7973 33.5417 34.6179 33.5417 34.6179L37.7502 34.5592C37.7502 34.5592 39.9518 34.4235 38.9079 32.6908C38.8223 32.5491 38.3 31.4091 35.7788 29.0667C33.14 26.6151 33.4934 27.0116 36.6721 22.7708C38.608 20.1882 39.3819 18.6114 39.1402 17.9361C38.9096 17.2929 37.4858 17.4629 37.4858 17.4629L32.7472 17.4924C32.7472 17.4924 32.396 17.4445 32.1355 17.6003C31.8809 17.7532 31.7171 18.1095 31.7171 18.1095C31.7171 18.1095 30.9671 20.1081 29.9668 21.8077C27.8568 25.3942 27.0131 25.5835 26.6683 25.3608C25.8661 24.8418 26.0664 23.2757 26.0664 22.1632C26.0664 18.6876 26.593 17.2385 25.0409 16.8634C24.5258 16.7387 24.1467 16.6565 22.8295 16.6433C21.1387 16.6257 19.7076 16.6484 18.8973 17.0458C18.3583 17.31 17.9424 17.8988 18.1957 17.9327C18.5089 17.9746 19.2182 18.1241 19.5943 18.6367C20.0798 19.2979 20.0627 20.783 20.0627 20.783C20.0627 20.783 20.3417 24.8743 19.4112 25.3826C18.7724 25.7312 17.8962 25.0195 16.0151 21.7658C15.0512 20.0991 14.3235 18.2568 14.3235 18.2568C14.3235 18.2568 14.1832 17.9125 13.9329 17.7284C13.6291 17.5053 13.2047 17.4342 13.2047 17.4342L8.7019 17.4637C8.7019 17.4637 8.02594 17.4826 7.7778 17.7768C7.55705 18.0384 7.76026 18.5797 7.76026 18.5797C7.76026 18.5797 11.2855 26.8352 15.2771 30.9955C18.9371 34.8097 23.0934 34.5592 23.0934 34.5592Z" fill="white"/>
</g>
<defs>
<clipPath id="clip0_1_23">
<rect width="48" height="48.046" fill="white"/>
</clipPath>
</defs>
</svg>
