<svg width="48" height="49" viewBox="0 0 48 49" fill="none" xmlns="http://www.w3.org/2000/svg">
<g clip-path="url(#clip0_1_17)">
<path d="M23.987 0.0127069C10.74 0.0155204 0.00339595 10.767 0.00620679 24.0267C0.00714373 28.6181 1.32346 33.1129 3.79887 36.9783L0.0671082 46.6699C-0.131618 47.1853 0.12473 47.7644 0.639676 47.9633C0.754826 48.0078 0.877098 48.0306 1.00049 48.0304C1.11499 48.031 1.22864 48.0114 1.33629 47.9723L11.3304 44.401C22.5749 51.4109 37.3676 47.9693 44.3707 36.714C51.3738 25.4587 47.9356 10.6519 36.691 3.64207C32.8793 1.26576 28.4776 0.008299 23.987 0.0127069Z" fill="#55CD6C"/>
<path d="M35.4222 28.1249C35.4222 28.1249 32.9737 26.9245 31.4406 26.1242C29.7056 25.2299 27.6668 26.9045 26.7074 27.8569C25.2142 27.2827 23.8504 26.4162 22.6958 25.3079C21.5884 24.1524 20.7226 22.7873 20.1492 21.2925C21.1007 20.3301 22.7697 18.2914 21.8802 16.5548C21.0907 15.0182 19.8815 12.5693 19.8815 12.5673C19.7118 12.2303 19.3671 12.0175 18.99 12.0171H16.9912C14.0803 12.5203 11.9638 15.0626 11.9942 18.0193C11.9942 21.1604 15.7499 27.1947 18.2825 29.7315C20.815 32.2684 26.8434 36.0259 29.9835 36.0259C32.9373 36.0563 35.4772 33.9377 35.98 31.0241V29.0234C35.9802 28.6419 35.764 28.2935 35.4222 28.1249Z" fill="#FAFAFA"/>
</g>
<defs>
<clipPath id="clip0_1_17">
<rect width="48" height="48.046" fill="white"/>
</clipPath>
</defs>
</svg>
